<?xml version="1.0" encoding="UTF-8"?>
<svg width="74px" height="75px" viewBox="0 0 74 75" version="1.1" xmlns="http://www.w3.org/2000/svg" xmlns:xlink="http://www.w3.org/1999/xlink">
    <!-- Generator: Sketch 57.1 (83088) - https://sketch.com -->
    <title>noun_Donate_2362903</title>
    <desc>Created with Sketch.</desc>
    <g id="Page-1" stroke="none" stroke-width="1" fill="none" fill-rule="evenodd">
        <g id="Artboard" transform="translate(-478.000000, -330.000000)" fill="#EF5350" fill-rule="nonzero">
            <g id="noun_Donate_2362903" transform="translate(478.000000, 330.000000)">
                <g id="Group">
                    <path d="M73.4771739,53.9594595 C72.4315217,51.3648649 69.2945652,52.3378378 66.8413043,52.7027027 C65.7554348,52.8648649 51.8804348,56.9594595 48.4217391,58.0135135 C48.0195652,58.1351351 47.7782609,58.5810811 47.8586957,58.9864865 C48.301087,60.6486486 48.7434783,64.1756757 45.4858696,66.2027027 C43.3141304,67.5405405 40.7402174,68.1891892 36.8793478,68.1081081 C32.7369565,68.027027 28.2326087,67.3783784 24.773913,66.9324324 C24.773913,66.9324324 24.7336957,66.9324324 24.7336957,66.9324324 C23.7684783,66.8108108 23.8086957,65.4324324 24.7336957,65.3108108 C25.0554348,65.2702703 25.3771739,65.2702703 25.698913,65.2297297 C29.2380435,65.6756757 32.5358696,65.9594595 34.225,66.0810811 C35.9945652,66.2027027 45.9684783,66.8513514 45.9684783,61.2162162 C45.9684783,58.4189189 43.9576087,58.9459459 37.5630435,58.4189189 C33.4206522,58.0540541 18.6608696,57.1216216 12.8695652,57.1216216 C6.9173913,57.1216216 0.0402173913,58.9864865 0.0402173913,65.6351351 C0.0402173913,72.2027027 2.61413043,74.6351351 14.8402174,74.6351351 C16.0065217,74.5945946 28.9565217,74.6351351 37.9652174,74.6351351 C46.4108696,74.6351351 63.5434783,63.7297297 67.1228261,61.3378378 C69.4152174,59.8783784 74.4826087,56.5135135 73.4771739,53.9594595 Z" id="Path"></path>
                    <path d="M40.0967391,2.95945946 C38.2467391,1.09459459 35.7934783,0.0810810811 33.1793478,0.0810810811 C30.5652174,0.0810810811 28.1119565,1.09459459 26.2619565,2.95945946 L23.2054348,6.04054054 L20.148913,2.95945946 C18.298913,1.09459459 15.8456522,0.0810810811 13.2315217,0.0810810811 C10.6173913,0.0810810811 8.16413043,1.09459459 6.31413043,2.95945946 C2.49347826,6.81081081 2.49347826,13.0540541 6.31413043,16.9054054 L22.1597826,32.8783784 C22.4413043,33.1621622 22.8434783,33.3243243 23.1652174,33.3243243 C23.5673913,33.3243243 23.8891304,33.1621622 24.1706522,32.8783784 L40.1369565,16.9054054 C43.9173913,13.0540541 43.9173913,6.81081081 40.0967391,2.95945946 Z" id="Path"></path>
                    <path d="M43.9978261,15.2432432 C44.6413043,15.1621622 45.2847826,15.1216216 45.9684783,15.1216216 C55.5804348,15.1216216 63.3826087,22.9864865 63.3826087,32.6756757 C63.3826087,42.3648649 55.5804348,50.2702703 45.9684783,50.2702703 C36.3565217,50.2702703 28.5543478,42.4054054 28.5543478,32.7162162 C28.5543478,32.4324324 28.5543478,31.8648649 28.5543478,31.5810811 C28.5543478,31.5810811 40.5793478,19.6216216 41.3032609,18.9324324 C42.0271739,18.2027027 42.55,17.5945946 43.0326087,16.8648649 C43.5554348,16.1351351 43.9978261,15.2432432 43.9978261,15.2432432 Z M46.1695652,22.7432432 C45.6869565,22.7432432 45.4456522,23.0675676 45.4456522,23.7567568 L45.4456522,24.3648649 C43.7967391,24.527027 42.5902174,25.0135135 41.7054348,25.9054054 C40.8608696,26.7972973 40.4184783,27.8918919 40.4184783,29.2702703 C40.4184783,30.3243243 40.6195652,31.1756757 41.0619565,31.8243243 C41.5043478,32.472973 42.0673913,33 42.7913043,33.3648649 C43.5152174,33.7297297 44.4,34.0540541 45.4456522,34.3378378 L45.4456522,39.8513514 C44.9228261,39.6891892 44.4804348,39.4864865 44.1586957,39.2027027 C43.8369565,38.9189189 43.5956522,38.5945946 43.4347826,38.2702703 C43.273913,37.9054054 43.0728261,37.4189189 42.8717391,36.7702703 C42.7913043,36.4864865 42.5902174,36.2432432 42.348913,36.0810811 C42.1076087,35.9189189 41.7858696,35.8378378 41.4641304,35.8378378 C41.0217391,35.8378378 40.6597826,36 40.3782609,36.2837838 C40.0967391,36.6081081 39.9358696,36.9324324 39.9358696,37.2972973 C39.9358696,37.8243243 40.0565217,38.3513514 40.2576087,38.8783784 C40.4586957,39.4054054 40.8206522,39.9324324 41.2630435,40.4189189 C41.7054348,40.9054054 42.3086957,41.3108108 42.9923913,41.6756757 C43.676087,42 44.4804348,42.2432432 45.4054348,42.3243243 L45.4054348,42.7297297 C45.4054348,43.0945946 45.4456522,43.3783784 45.5663043,43.5405405 C45.6869565,43.7027027 45.8880435,43.7837838 46.1695652,43.7837838 C46.4913043,43.7837838 46.6923913,43.6621622 46.7728261,43.4594595 C46.8532609,43.2567568 46.8934783,42.8918919 46.8934783,42.4459459 L46.8934783,42.2837838 C48.0195652,42.2027027 48.9847826,41.8783784 49.7891304,41.3918919 C50.5934783,40.9054054 51.2369565,40.2567568 51.6391304,39.4459459 C52.0413043,38.6756757 52.2826087,37.8243243 52.2826087,36.8918919 C52.2826087,36.1621622 52.1619565,35.5135135 51.8804348,34.9054054 C51.598913,34.2972973 51.2369565,33.7702703 50.7543478,33.3243243 C50.3119565,32.9189189 49.7891304,32.5945946 49.1858696,32.3513514 C48.5826087,32.1081081 47.8184783,31.8648649 46.8532609,31.6216216 L46.8532609,26.7162162 C47.8586957,27.0405405 48.4619565,27.6891892 48.7434783,28.7027027 C48.9847826,29.5540541 49.4673913,29.9594595 50.2315217,29.9594595 C50.6336957,29.9594595 50.9956522,29.7972973 51.2771739,29.5135135 C51.5586957,29.2297297 51.7195652,28.8648649 51.7195652,28.5 C51.7195652,28.1351351 51.6391304,27.7702703 51.4380435,27.3243243 C51.2369565,26.8783784 50.9554348,26.472973 50.6336957,26.0675676 C50.1913043,25.5405405 49.6684783,25.1351351 49.0652174,24.8918919 C48.4619565,24.6486486 47.7380435,24.4459459 46.8934783,24.3648649 L46.8934783,23.7162162 C46.9336957,23.0675676 46.6923913,22.7432432 46.1695652,22.7432432 Z M43.8771739,30.3648649 C43.5152174,30.0405405 43.3543478,29.5540541 43.3543478,28.9459459 C43.3543478,28.2972973 43.5554348,27.8108108 43.9173913,27.4864865 C44.2793478,27.1621622 44.8021739,26.9189189 45.4456522,26.7162162 L45.4456522,31.2567568 C44.7217391,30.972973 44.198913,30.6891892 43.8771739,30.3648649 Z M48.7836957,35.7162162 C49.1858696,36.0810811 49.4271739,36.6081081 49.4271739,37.2972973 C49.4271739,37.9459459 49.226087,38.5135135 48.7836957,39 C48.3413043,39.4864865 47.7380435,39.8108108 46.9336957,39.972973 L46.9336957,34.7837838 C47.7782609,35.027027 48.3815217,35.3513514 48.7836957,35.7162162 Z" id="Shape"></path>
                </g>
            </g>
        </g>
    </g>
</svg>